<svg id="visual" viewBox="0 0 675 900" width="675" height="900" xmlns="http://www.w3.org/2000/svg" xmlns:xlink="http://www.w3.org/1999/xlink" version="1.1"><rect x="0" y="0" width="675" height="900" fill="#b9a6d0"></rect><path d="M0 342L28.2 339.7C56.3 337.3 112.7 332.7 169 346.5C225.3 360.3 281.7 392.7 337.8 392.3C394 392 450 359 506.2 359C562.3 359 618.7 392 646.8 408.5L675 425L675 0L646.8 0C618.7 0 562.3 0 506.2 0C450 0 394 0 337.8 0C281.7 0 225.3 0 169 0C112.7 0 56.3 0 28.2 0L0 0Z" fill="#faf0e6"></path></svg>